# xmcd CD database file
#
# Track frame offsets:
#	183
#	17708
#	34985
#	54360
#	68073
#	83728
#	101930
#	121173
#	137700
#
# Disc length: 2130 seconds
#
# Revision: 0
# Processed by: cddbd v1.4PL0 Copyright (c) Steve Scherf et al.
# Submitted via: CDex 1.51
#
DISCID=74085009
DTITLE=Gangster d'amour - Spirito
DYEAR=1989
DGENRE=Jazz
TTITLE0=Le mot de passe
TTITLE1=Adieu les cops
TTITLE2=Charlie
TTITLE3=Tireur fou
TTITLE4=Mort sur le nil
TTITLE5=Cher Deborah
TTITLE6=Banco
TTITLE7=Willy ne pense qu'a ca
TTITLE8=Couleur Eldorado
EXTD=YEAR: 1989
EXTT0=
EXTT1=
EXTT2=
EXTT3=
EXTT4=
EXTT5=
EXTT6=
EXTT7=
EXTT8=
PLAYORDER=
